<svg width="1379" height="415" viewBox="0 0 1379 415" fill="none" xmlns="http://www.w3.org/2000/svg">
<path d="M715.76 312.5C698.97 312.5 685.62 325.85 685.62 342.64C685.62 359.43 698.97 372.4 715.37 372.4C731.77 372.4 745.51 359.05 745.51 342.64C745.51 326.23 732.54 312.5 715.75 312.5" fill="#000000"/>
<path d="M296.39 260.44V373.42H355.93V260.44C355.93 231.74 379.29 208.39 407.99 208.39V148.85C346.45 148.85 296.39 198.91 296.39 260.44Z" fill="#000000"/>
<path d="M1061.07 260.44V373.42H1120.61V260.44C1120.61 231.74 1143.97 208.39 1172.67 208.39V148.85C1111.13 148.85 1061.07 198.91 1061.07 260.44Z" fill="#000000"/>
<path d="M513.71 260.44C513.71 321.98 563.77 372.04 625.31 372.04V312.5C596.61 312.5 573.25 289.14 573.25 260.44C573.25 231.74 596.61 208.39 625.31 208.39V148.85C563.77 148.85 513.71 198.91 513.71 260.44Z" fill="#000000"/>
<path d="M508.28 39H448.74V373.55H508.28V39Z" fill="#000000"/>
<path d="M1338.11 208.39H1347.05V148.85H1295V72.9697H1235.45V148.85H1190.56V208.39H1235.45V260.44C1235.45 321.98 1285.51 372.04 1347.05 372.04V312.5C1318.35 312.5 1295 289.14 1295 260.44V208.39H1338.12H1338.11Z" fill="#000000"/>
<path d="M903.16 148.85C841.62 148.85 791.56 198.91 791.56 260.44C791.56 321.97 841.62 372.04 903.16 372.04C921.95 372.04 939.66 367.35 955.21 359.12V374.58H1014.76V260.44C1014.76 198.91 964.7 148.85 903.16 148.85ZM903.16 312.5C874.46 312.5 851.11 289.14 851.11 260.44C851.11 231.74 874.46 208.39 903.16 208.39C931.86 208.39 955.21 231.75 955.21 260.44C955.21 289.13 931.86 312.5 903.16 312.5Z" fill="#000000"/>
<path d="M261.18 258.03C259.23 196.43 208.71 147.08 146.64 147.08C84.57 147.08 32 198.41 32 261.72C32 325.03 83.32 376.36 146.64 376.36H261.28V258.03H261.19H261.18ZM74.97 238.66C68.49 238.66 63.23 233.4 63.23 226.92C63.23 220.44 68.49 215.17 74.97 215.17C81.45 215.17 86.72 220.43 86.72 226.92C86.72 233.41 81.46 238.66 74.97 238.66ZM125.41 238.66C118.93 238.66 113.67 233.4 113.67 226.92C113.67 220.44 118.93 215.17 125.41 215.17C131.89 215.17 137.15 220.43 137.15 226.92C137.15 233.41 131.89 238.66 125.41 238.66Z" fill="#000000"/>
</svg>
